<svg width="16" height="12" viewBox="0 0 16 12" fill="none" xmlns="http://www.w3.org/2000/svg">
<rect width="16" height="12" rx="3" fill="#DFE1EA"/>
<mask id="mask0_123_1268" style="mask-type:luminance" maskUnits="userSpaceOnUse" x="0" y="0" width="16" height="12">
<rect width="16" height="12" rx="3" fill="white"/>
</mask>
<g mask="url(#mask0_123_1268)">
<path fill-rule="evenodd" clip-rule="evenodd" d="M0 12H16V0H0V12Z" fill="#001468"/>
<path fill-rule="evenodd" clip-rule="evenodd" d="M14.2857 0.000488281L9.71437 3.90049V4.20049H12.5708L16.0005 1.20049V0.000488281H14.2857ZM6.28566 0.000488281V3.90049L1.71437 0.000488281H0.000488281V1.20049L3.42919 4.20049H6.28566H0.000488281V7.79949H3.42919H6.28566V8.10049V12.0005H9.71437V7.79949V8.10049L14.2857 12.0005H16.0005V10.7995L12.5708 7.79949H16.0005V4.20049H9.71437V0.000488281H6.28566ZM3.42919 7.79949L0.000488281 10.7995V12.0005H1.71437L6.28566 8.10049V7.79949H3.42919Z" fill="white"/>
<path fill-rule="evenodd" clip-rule="evenodd" d="M15.1431 0.000488281L10.2857 4.20049H11.7144L16.0005 0.300488V0.000488281H15.1431ZM6.85696 0.000488281V4.80049H0.000488281V7.20049H6.85696V12.0005H9.14308V7.20049H16.0005V4.80049H9.14308V0.000488281H6.85696ZM0.000488281 0.000488281V0.300488L4.28661 4.20049H5.71437L0.8579 0.000488281H0.000488281ZM10.2857 7.79949L15.1431 12.0005H16.0005V11.7005L11.7144 7.79949H10.2857ZM4.28661 7.79949L0.000488281 11.7005V12.0005H0.8579L5.71437 7.79949H4.28661Z" fill="#FF0000"/>
</g>
</svg>
