<svg width="40" height="24" viewBox="0 0 40 24" fill="none" xmlns="http://www.w3.org/2000/svg">
<g clip-path="url(#clip0_123_1009)">
<path d="M36.6667 0H3.33333C1.49238 0 0 1.46525 0 3.27273V20.7273C0 22.5347 1.49238 24 3.33333 24H36.6667C38.5076 24 40 22.5347 40 20.7273V3.27273C40 1.46525 38.5076 0 36.6667 0Z" fill="#CC0066"/>
<g clip-path="url(#clip1_123_1009)">
<path d="M9.7998 4.33432V19.6657C9.7998 20.3996 10.4002 21 11.1341 21H20.2942C27.2194 21 30.2216 17.1238 30.2216 11.98C30.2216 6.86286 27.2194 3 20.2942 3H11.1341C10.4002 3 9.7998 3.60044 9.7998 4.33432Z" fill="white"/>
<path d="M15.9316 6.76217V18.0906H20.862C25.3386 18.0906 27.28 15.562 27.28 11.986C27.28 8.5635 25.3386 5.9082 20.862 5.9082H16.7856C16.3119 5.9082 15.9316 6.29516 15.9316 6.76217Z" fill="#CC0066"/>
<path d="M20.2942 19.7795H12.3283C11.6211 19.7795 11.0474 19.2058 11.0474 18.4986V5.50898C11.0474 4.80179 11.6211 4.22803 12.3283 4.22803H20.2942C27.8531 4.22803 28.9806 9.09163 28.9806 11.9871C28.9806 17.0108 25.8917 19.7795 20.2942 19.7795ZM12.3283 4.65501C11.8546 4.65501 11.4743 5.03529 11.4743 5.50898V18.4986C11.4743 18.9723 11.8546 19.3526 12.3283 19.3526H20.2942C25.6182 19.3526 28.5537 16.7373 28.5537 11.9871C28.5537 5.60905 23.3765 4.65501 20.2942 4.65501H12.3283Z" fill="black"/>
<path d="M17.6664 10.4598C17.8399 10.4598 18 10.4865 18.1534 10.5399C18.3069 10.5932 18.4336 10.68 18.547 10.7867C18.6538 10.9001 18.7405 11.0402 18.8072 11.2003C18.8673 11.3671 18.9006 11.5606 18.9006 11.7874C18.9006 11.9876 18.874 12.1677 18.8273 12.3345C18.7739 12.5013 18.7005 12.6481 18.6004 12.7682C18.5003 12.8883 18.3736 12.9817 18.2201 13.0551C18.0667 13.1218 17.8866 13.1618 17.6797 13.1618H16.5122V10.4531H17.6664V10.4598ZM17.6264 12.6681C17.7131 12.6681 17.7932 12.6548 17.8799 12.6281C17.9599 12.6014 18.0333 12.5547 18.0934 12.488C18.1534 12.4212 18.2068 12.3412 18.2468 12.2344C18.2869 12.1277 18.3069 12.0076 18.3069 11.8542C18.3069 11.7207 18.2935 11.594 18.2668 11.4872C18.2402 11.3805 18.1935 11.2804 18.1334 11.207C18.0734 11.1336 17.9933 11.0669 17.8932 11.0269C17.7932 10.9869 17.6731 10.9668 17.5263 10.9668H17.0993V12.6748H17.6264V12.6681Z" fill="white"/>
<path d="M21.3076 10.4598V10.9602H19.8799V11.5406H21.1942V12.0009H19.8799V12.6614H21.341V13.1618H19.2861V10.4531H21.3076V10.4598Z" fill="white"/>
<path d="M23.3497 10.4595L24.3638 13.1681H23.7433L23.5365 12.5677H22.5224L22.3089 13.1681H21.7085L22.7293 10.4595H23.3497ZM23.3831 12.1207L23.0428 11.1266H23.0361L22.6826 12.1207H23.3831Z" fill="white"/>
<path d="M25.3321 10.4595V12.6678H26.653V13.1681H24.7383V10.4595H25.3321Z" fill="white"/>
<path d="M13.7032 13.0606C14.3922 13.0606 14.9507 12.502 14.9507 11.813C14.9507 11.124 14.3922 10.5654 13.7032 10.5654C13.0141 10.5654 12.4556 11.124 12.4556 11.813C12.4556 12.502 13.0141 13.0606 13.7032 13.0606Z" fill="black"/>
<path d="M14.6429 18.0906C13.5955 18.0906 12.7549 17.2433 12.7549 16.2026V14.7281C12.7549 14.2077 13.1752 13.7808 13.7023 13.7808C14.2226 13.7808 14.6496 14.2011 14.6496 14.7281V18.0906H14.6429Z" fill="black"/>
</g>
</g>
<defs>
<clipPath id="clip0_123_1009">
<rect width="40" height="24" fill="white"/>
</clipPath>
<clipPath id="clip1_123_1009">
<rect width="20.4218" height="18" fill="white" transform="translate(9.7998 3)"/>
</clipPath>
</defs>
</svg>
