<svg width="40" height="24" viewBox="0 0 40 24" fill="none" xmlns="http://www.w3.org/2000/svg">
<g clip-path="url(#clip0_123_487)">
<path d="M36.6667 0H3.33333C1.49238 0 0 1.46525 0 3.27273V20.7273C0 22.5347 1.49238 24 3.33333 24H36.6667C38.5076 24 40 22.5347 40 20.7273V3.27273C40 1.46525 38.5076 0 36.6667 0Z" fill="#2464B4"/>
<path d="M25.5557 10.7782C25.5542 11.0748 25.5244 11.3707 25.4668 11.6619C25.3577 12.6348 24.8603 13.5257 24.0834 14.1391C23.3065 14.7526 22.3136 15.0386 21.3223 14.9346H21.0001C20.8783 14.9335 20.7602 14.9762 20.6682 15.0545C20.5761 15.1328 20.5163 15.2415 20.5001 15.36L20.0557 18.1419C20.0348 18.2604 19.9722 18.3679 19.8788 18.4457C19.7853 18.5235 19.667 18.5665 19.5446 18.5673H18.0223C17.928 18.5673 17.8376 18.5305 17.7709 18.4651C17.7042 18.3996 17.6668 18.3108 17.6668 18.2182C17.6625 18.2003 17.6625 18.1816 17.6668 18.1637L18.4334 13.32H19.6334C20.8858 13.4348 22.1346 13.068 23.117 12.2968C24.0994 11.5256 24.7386 10.4102 24.9001 9.1855C25.1135 9.39361 25.2816 9.64208 25.3943 9.91585C25.5069 10.1896 25.5619 10.483 25.5557 10.7782ZM17.6557 13.091C17.6527 13.007 17.6668 12.9232 17.6972 12.8446C17.7275 12.7661 17.7735 12.6942 17.8325 12.6333C17.8915 12.5723 17.9622 12.5235 18.0406 12.4897C18.119 12.4559 18.2034 12.4378 18.289 12.4364H19.6779C22.2223 12.4364 23.6779 11.291 24.1223 8.9455C24.5668 6.60004 22.9668 5.45459 20.789 5.45459H16.6668C16.5267 5.45561 16.3917 5.50559 16.2858 5.59555C16.1799 5.68552 16.1101 5.80959 16.089 5.9455C14.8446 14.04 14.4446 16.091 14.4446 16.7237C14.4416 16.7704 14.4482 16.8173 14.464 16.8615C14.4798 16.9056 14.5045 16.9462 14.5367 16.9809C14.5688 17.0155 14.6077 17.0434 14.6511 17.0629C14.6944 17.0824 14.7413 17.0932 14.789 17.0946H17.0112L17.6557 13.091Z" fill="white"/>
</g>
<defs>
<clipPath id="clip0_123_487">
<rect width="40" height="24" fill="white"/>
</clipPath>
</defs>
</svg>
