<svg width="26" height="21" viewBox="0 0 26 21" fill="none" xmlns="http://www.w3.org/2000/svg">
<path d="M0 0H18V14H0V0Z" fill="white"/>
<path fill-rule="evenodd" clip-rule="evenodd" d="M17 1H1V13H17V1ZM0 0V14H18V0H0Z" fill="black"/>
<path fill-rule="evenodd" clip-rule="evenodd" d="M17 4H1V2H17V4Z" fill="black"/>
<path fill-rule="evenodd" clip-rule="evenodd" d="M7 11H3V10H7V11Z" fill="black"/>
<path d="M25.136 12.068C25.136 16.5238 21.5238 20.136 17.068 20.136C12.6122 20.136 9 16.5238 9 12.068C9 7.61216 12.6122 4 17.068 4C21.5238 4 25.136 7.61216 25.136 12.068Z" fill="white"/>
<path fill-rule="evenodd" clip-rule="evenodd" d="M17.068 4.5C12.8883 4.5 9.5 7.8883 9.5 12.068C9.5 16.2477 12.8883 19.636 17.068 19.636C21.2477 19.636 24.636 16.2477 24.636 12.068C24.636 7.8883 21.2477 4.5 17.068 4.5ZM8.5 12.068C8.5 7.33601 12.336 3.5 17.068 3.5C21.7999 3.5 25.636 7.33601 25.636 12.068C25.636 16.7999 21.7999 20.636 17.068 20.636C12.336 20.636 8.5 16.7999 8.5 12.068Z" fill="black"/>
<path d="M20.5818 14.6339C20.2067 14.6339 19.8776 14.5725 19.5946 14.4496C19.3138 14.3268 19.0911 14.1535 18.9266 13.9297C18.7621 13.7038 18.6677 13.4405 18.6436 13.14L18.6403 13.1005H19.7921L19.7986 13.1367C19.8118 13.2398 19.8513 13.333 19.9171 13.4164C19.9851 13.4997 20.074 13.5655 20.1837 13.6138C20.2955 13.6621 20.4272 13.6862 20.5785 13.6862C20.7277 13.6862 20.856 13.661 20.9635 13.6105C21.0732 13.5579 21.1577 13.4866 21.2169 13.3966C21.2762 13.3067 21.3058 13.2036 21.3058 13.0873V13.0807C21.3058 12.8877 21.2345 12.7407 21.0919 12.6398C20.9493 12.5389 20.7464 12.4884 20.4831 12.4884H19.9698V11.669H20.4765C20.6323 11.669 20.765 11.646 20.8747 11.5999C20.9866 11.5538 21.0721 11.4891 21.1314 11.4058C21.1928 11.3224 21.2235 11.2259 21.2235 11.1162V11.1096C21.2235 10.9933 21.1972 10.8935 21.1445 10.8102C21.0941 10.7246 21.0195 10.6599 20.9208 10.616C20.8242 10.5699 20.708 10.5469 20.572 10.5469C20.4337 10.5469 20.312 10.571 20.2067 10.6193C20.1036 10.6654 20.0213 10.7323 19.9599 10.82C19.9007 10.9056 19.8645 11.0065 19.8513 11.1228L19.848 11.1557H18.7522L18.7555 11.1096C18.7774 10.8112 18.8652 10.5535 19.0188 10.3363C19.1745 10.1169 19.384 9.948 19.6473 9.82953C19.9127 9.70887 20.2209 9.64854 20.572 9.64854C20.9339 9.64854 21.2476 9.70339 21.5131 9.81308C21.7785 9.92057 21.9837 10.0708 22.1284 10.2639C22.2732 10.457 22.3456 10.6829 22.3456 10.9418V10.9484C22.3456 11.148 22.3007 11.3224 22.2107 11.4716C22.123 11.6186 22.0045 11.7392 21.8553 11.8336C21.7083 11.9279 21.5449 11.9937 21.365 12.031V12.054C21.7226 12.0891 22.0067 12.2021 22.2173 12.393C22.4279 12.5838 22.5332 12.8361 22.5332 13.1498V13.1564C22.5332 13.4548 22.4531 13.7158 22.293 13.9396C22.1328 14.1612 21.9069 14.3323 21.6151 14.4529C21.3233 14.5736 20.9789 14.6339 20.5818 14.6339Z" fill="black"/>
<path d="M14.5842 14.5155V13.7092L16.0749 12.3206C16.3074 12.1078 16.4873 11.9334 16.6145 11.7974C16.744 11.6591 16.8328 11.5418 16.8811 11.4453C16.9315 11.3465 16.9568 11.2489 16.9568 11.1524V11.1392C16.9568 11.0208 16.9315 10.9176 16.8811 10.8299C16.8306 10.7421 16.7571 10.6741 16.6606 10.6259C16.5641 10.5776 16.45 10.5535 16.3184 10.5535C16.1802 10.5535 16.0584 10.582 15.9531 10.639C15.85 10.6961 15.7688 10.7751 15.7096 10.876C15.6504 10.9747 15.6208 11.0888 15.6208 11.2182V11.2445L14.5151 11.2412V11.2215C14.5151 10.9056 14.5919 10.6292 14.7454 10.3922C14.9012 10.1553 15.1173 9.97103 15.3937 9.8394C15.6723 9.70558 15.9959 9.63867 16.3644 9.63867C16.7176 9.63867 17.0259 9.6979 17.2891 9.81637C17.5546 9.93264 17.7608 10.0961 17.9078 10.3067C18.057 10.5173 18.1315 10.763 18.1315 11.0438V11.0602C18.1315 11.2379 18.0942 11.4145 18.0197 11.59C17.9451 11.7655 17.8222 11.9531 17.6511 12.1527C17.48 12.3502 17.2485 12.5751 16.9568 12.8273L15.8577 13.7915L16.19 13.2716V13.7915L15.8577 13.5743H18.1941V14.5155H14.5842Z" fill="black"/>
<path d="M12.463 14.5155V10.8562H12.4005L11.2554 11.6295V10.5897L12.463 9.76701H13.6707V14.5155H12.463Z" fill="black"/>
</svg>
