<svg width="13" height="13" viewBox="0 0 13 13" fill="none" xmlns="http://www.w3.org/2000/svg">
<path d="M4.57663 11.5H8.85208C9.43142 11.5 9.71436 11.2048 9.71436 10.5589V7.17299C9.71436 6.59175 9.48082 6.2919 9.00028 6.24116V5.07868C9.00028 3.33957 7.891 2.5 6.71436 2.5C5.53771 2.5 4.42843 3.33957 4.42843 5.07868V6.26422C3.98831 6.33342 3.71436 6.62865 3.71436 7.17299V10.5589C3.71436 11.2048 3.99729 11.5 4.57663 11.5ZM5.15148 4.9818C5.15148 3.82394 5.87454 3.2104 6.71436 3.2104C7.55418 3.2104 8.27723 3.82394 8.27723 4.9818V6.23655L5.15148 6.24116V4.9818Z" fill="black"/>
</svg>
