<svg width="16" height="16" viewBox="0 0 16 16" fill="none" xmlns="http://www.w3.org/2000/svg">
<path d="M6.00016 7.00016H8.00016V11.0002M6.00016 11.0002H10.0002M8.00016 5.3335V4.3335M1.3335 8.00016C1.3335 9.76827 2.03587 11.464 3.28612 12.7142C4.53636 13.9645 6.23205 14.6668 8.00016 14.6668C9.76827 14.6668 11.464 13.9645 12.7142 12.7142C13.9645 11.464 14.6668 9.76827 14.6668 8.00016C14.6668 6.23205 13.9645 4.53636 12.7142 3.28612C11.464 2.03587 9.76827 1.3335 8.00016 1.3335C6.23205 1.3335 4.53636 2.03587 3.28612 3.28612C2.03587 4.53636 1.3335 6.23205 1.3335 8.00016Z" stroke="black"/>
</svg>
