<svg width="93" height="12" viewBox="0 0 93 12" fill="none" xmlns="http://www.w3.org/2000/svg">
<g clip-path="url(#clip0_123_1291)">
<path d="M4.28537 11.2663L6.86531 6.73664L9.44526 11.2663H4.28537ZM3.64792 1.09602L6.44084 6L3.64792 10.904L0.778406 6L3.64792 1.09602ZM6.86531 5.26386L4.28438 0.733162H9.44526L6.86531 5.26386ZM7.28435 6.0005L10.3891 0.548256C10.4889 0.372794 10.4286 0.148621 10.2537 0.0482147C10.1988 0.016403 10.1361 0 10.0728 0H3.65681C3.52784 0 3.40826 0.0690912 3.34303 0.18093L0.0500324 5.8146C-0.0166775 5.92892 -0.0166775 6.07108 0.0500324 6.1854L3.34303 11.8191C3.40826 11.9314 3.52784 12 3.65681 12H10.0728C10.2739 12 10.437 11.836 10.4375 11.6337C10.4375 11.5695 10.4212 11.5069 10.3896 11.4512L7.28435 5.9995V6.0005Z" fill="#727272"/>
<path d="M15.8003 9.20385C15.4015 9.03485 15.0423 8.78383 14.7448 8.46721C14.4498 8.1466 14.2215 7.77033 14.0728 7.35976C13.9127 6.92036 13.8326 6.4561 13.8361 5.98837C13.8321 5.52163 13.9102 5.05788 14.0664 4.61848C14.2106 4.2089 14.435 3.83263 14.7255 3.51103C15.0136 3.1939 15.364 2.9404 15.7544 2.76594C16.1823 2.58004 16.6448 2.48808 17.1108 2.49554C17.5022 2.49007 17.8915 2.55071 18.2631 2.67547C18.5868 2.78582 18.8877 2.95383 19.1526 3.17154C19.4046 3.38229 19.6137 3.64026 19.7673 3.93154C19.9289 4.23972 20.0391 4.57225 20.0935 4.91621H18.3926C18.3397 4.63637 18.1989 4.38088 17.9899 4.18852C17.7705 3.99168 17.4839 3.8878 17.1899 3.89923C16.6606 3.89923 16.2638 4.08563 15.9995 4.45892C15.7351 4.83221 15.6027 5.3407 15.6022 5.98439C15.6022 6.61119 15.7282 7.1157 15.9802 7.49744C16.2322 7.87918 16.627 8.07055 17.1637 8.07055C17.4809 8.08397 17.7932 7.98605 18.0472 7.79419C18.279 7.60928 18.4242 7.32795 18.4821 6.95018H20.1592C20.1132 7.63513 19.8034 8.27534 19.2949 8.73363C19.0286 8.96973 18.7202 9.15315 18.3862 9.27393C18.0067 9.41112 17.6054 9.47872 17.2017 9.47325C16.7209 9.4812 16.2441 9.38925 15.7998 9.20285L15.8003 9.20385Z" fill="#727272"/>
<path d="M22.8654 3.53968C23.0685 3.22156 23.3392 2.95265 23.6585 2.75234C23.9485 2.57737 24.3196 2.48989 24.7723 2.48989C25.0915 2.48542 25.4077 2.54904 25.7003 2.67728C25.9706 2.79658 26.2127 2.97154 26.4109 3.19174C26.612 3.41989 26.7686 3.68432 26.8719 3.97113C26.9861 4.29123 27.0424 4.62923 27.0379 4.96922V9.2832H25.299V5.2262C25.3134 4.90808 25.2086 4.59593 25.005 4.35138C24.8083 4.1282 24.5267 4.01636 24.16 4.01636C23.7953 4.00642 23.445 4.16001 23.2034 4.43538C22.9513 4.71473 22.8248 5.08156 22.8248 5.53587V9.2827H21.0859V0.0761719H22.8248V3.53968H22.8659H22.8654Z" fill="#727272"/>
<path d="M30.1768 4.22797C29.9381 4.48147 29.78 4.82692 29.7029 5.26434H32.6228C32.6139 4.88359 32.4657 4.51925 32.2072 4.24089C31.9513 3.97795 31.597 3.83579 31.2318 3.84822C30.7678 3.84822 30.4169 3.97497 30.1787 4.22797H30.1768ZM29.9159 9.20403C29.0985 8.86951 28.468 8.19251 28.1883 7.35049C28.0366 6.90761 27.9605 6.44137 27.964 5.97314C27.9605 5.50541 28.0406 5.04066 28.2007 4.60176C28.3484 4.19417 28.5747 3.81988 28.8668 3.50077C29.4692 2.84913 30.3176 2.48429 31.2021 2.49671C31.6815 2.48727 32.1568 2.58618 32.5932 2.786C32.989 2.97538 33.3354 3.25522 33.6042 3.60366C33.8883 3.97844 34.0993 4.40442 34.2248 4.85874C34.3706 5.38462 34.4413 5.9289 34.4353 6.47517H29.6792C29.7469 6.98963 29.9208 7.39274 30.201 7.68501C30.4812 7.97728 30.8671 8.12292 31.3593 8.12243C31.7002 8.12243 31.973 8.04886 32.1786 7.90372C32.3836 7.75659 32.5398 7.54981 32.6263 7.31172H34.3419C34.2812 7.60549 34.1705 7.88632 34.0148 8.14181C33.8537 8.40724 33.6457 8.64036 33.4011 8.83024C33.1328 9.03652 32.8323 9.19508 32.5116 9.30095C32.144 9.42124 31.759 9.4799 31.3726 9.47592C30.874 9.48536 30.3784 9.39291 29.9164 9.20502L29.9159 9.20403Z" fill="#727272"/>
<path d="M37.0415 9.20523C36.6423 9.03623 36.2825 8.78522 35.9851 8.46859C35.6905 8.14749 35.4622 7.77122 35.313 7.36114C35.1529 6.92174 35.0729 6.45749 35.0763 5.98976C35.0724 5.52302 35.1504 5.05926 35.3066 4.61986C35.4509 4.21029 35.6752 3.83401 35.9658 3.51241C36.2549 3.19678 36.6057 2.94477 36.9961 2.7718C37.424 2.5859 37.8865 2.49394 38.3525 2.5014C38.7439 2.49593 39.1333 2.55657 39.5049 2.68133C39.8285 2.79168 40.1295 2.95968 40.3943 3.1774C40.6468 3.38815 40.8554 3.64612 41.009 3.9374C41.1706 4.24558 41.2808 4.57811 41.3352 4.92207H39.6328C39.58 4.64223 39.4391 4.38674 39.2301 4.19438C39.0107 3.99754 38.7241 3.89366 38.4301 3.90509C37.9009 3.90509 37.5041 4.09149 37.2397 4.46478C36.9753 4.83807 36.8429 5.34656 36.8424 5.99025C36.8424 6.61705 36.9684 7.12156 37.2204 7.5033C37.4724 7.88504 37.8673 8.07641 38.4039 8.07641C38.7211 8.08983 39.0334 7.99191 39.2874 7.80005C39.5192 7.61514 39.6645 7.3338 39.7223 6.95604H41.3994C41.3767 7.29802 41.2882 7.63254 41.1385 7.94071C40.9913 8.24342 40.7867 8.51482 40.5366 8.73949C40.2703 8.97559 39.962 9.15901 39.6279 9.27979C39.2484 9.41698 38.8472 9.48458 38.4434 9.47911C37.9621 9.48557 37.4848 9.39213 37.041 9.20424L37.0415 9.20523Z" fill="#727272"/>
<path d="M44.0542 7.05389V9.28171H42.3267V0.0761719H44.0542V5.17451L46.3836 2.67629H48.4704L46.0506 5.18743L48.7644 9.28171H46.6524L44.8093 6.26853L44.0542 7.05389Z" fill="#727272"/>
<path d="M53.3072 7.54162C53.5928 7.14695 53.7356 6.62752 53.7356 5.98383C53.7356 5.34014 53.5928 4.81873 53.3072 4.42009C53.0216 4.02144 52.6095 3.82163 52.0714 3.82113C51.5332 3.82063 51.1221 4.02045 50.8365 4.42009C50.5504 4.81873 50.4071 5.34014 50.408 5.98383C50.4085 6.62752 50.5514 7.14695 50.8365 7.54162C51.1221 7.93678 51.5337 8.13461 52.0714 8.13461C52.609 8.13461 53.0206 7.93727 53.3072 7.54261V7.54162ZM50.6769 9.20328C49.8556 8.85932 49.2102 8.19177 48.8915 7.35621C48.5589 6.47294 48.5589 5.49771 48.8915 4.61443C49.2107 3.77888 49.8556 3.11133 50.6769 2.76637C51.5723 2.406 52.5714 2.406 53.4673 2.76637C54.2891 3.11232 54.9344 3.78186 55.2527 4.61891C55.5867 5.50218 55.5867 6.47791 55.2527 7.36069C54.9339 8.19624 54.2886 8.86379 53.4673 9.20776C52.5719 9.56813 51.5728 9.56813 50.6769 9.20776V9.20328Z" fill="#727272"/>
<path d="M60.6021 8.50925H60.564C60.3599 8.79208 60.101 9.03017 59.8025 9.20911C59.5174 9.37662 59.1438 9.46012 58.6828 9.46012C57.949 9.46012 57.3857 9.24539 56.9933 8.81643C56.601 8.38747 56.4048 7.8079 56.4048 7.07871V2.67676H58.1323V6.78744C58.1323 7.17415 58.2193 7.4704 58.3932 7.67618C58.5672 7.88196 58.8424 7.98485 59.2195 7.98485C59.6291 7.98485 59.9513 7.84568 60.1855 7.56683C60.4197 7.28798 60.5359 6.9296 60.5334 6.49119V2.67676H62.2723V9.28218H60.6031V8.50875L60.6021 8.50925Z" fill="#727272"/>
<path d="M63.9717 2.67553V0.616211H65.6741V2.67553H66.8002V3.83069H65.6741V7.32949C65.6741 7.57852 65.7334 7.75 65.853 7.84445C65.9898 7.94435 66.1569 7.99456 66.3259 7.98611H66.6589C66.7187 7.98611 66.7785 7.98163 66.8378 7.97318V9.26057C66.7439 9.26951 66.65 9.27399 66.5561 9.27349C66.4622 9.28244 66.3476 9.28592 66.2083 9.28592H65.7507C65.5372 9.28592 65.3247 9.26206 65.1167 9.21484C64.9121 9.1696 64.7184 9.08461 64.5469 8.96382C64.3705 8.83757 64.2282 8.66956 64.1313 8.47472C64.0167 8.23414 63.9619 7.96921 63.9712 7.70229V3.83119H63.062V2.67602H63.9707L63.9717 2.67553Z" fill="#727272"/>
<path d="M68.8773 7.58789C69.3922 7.58789 69.8092 8.00791 69.8092 8.52534C69.8092 9.04278 69.3922 9.4628 68.8773 9.4628C68.3624 9.4628 67.9453 9.04278 67.9453 8.52534C67.9453 8.00791 68.3624 7.58789 68.8773 7.58789Z" fill="#727272"/>
<path d="M72.319 9.18451C71.9548 9.01402 71.6331 8.7635 71.3781 8.45085C71.1143 8.12329 70.9166 7.74702 70.7955 7.34341C70.6596 6.89506 70.5929 6.42832 70.5974 5.95959C70.5934 5.49037 70.6626 5.02363 70.8024 4.57578C70.927 4.17267 71.1271 3.79689 71.391 3.46833C71.6469 3.15419 71.9711 2.90318 72.3378 2.73467C72.74 2.55325 73.1768 2.46378 73.6176 2.47223C74.3514 2.47223 74.9508 2.66111 75.4158 3.03788C75.8808 3.41515 76.1689 3.9475 76.2801 4.63493H75.4899C75.396 4.13737 75.189 3.76408 74.8688 3.51456C74.5486 3.26504 74.133 3.14027 73.6211 3.14127C73.2766 3.13182 72.9357 3.20986 72.6288 3.36693C72.357 3.51207 72.1228 3.71935 71.9444 3.97235C71.7576 4.24275 71.6227 4.54645 71.5481 4.86706C71.4602 5.22494 71.4172 5.59276 71.4196 5.96108C71.4172 6.32791 71.4626 6.69375 71.5545 7.04915C71.6346 7.36826 71.77 7.67047 71.9543 7.94236C72.1292 8.19586 72.3615 8.40314 72.6328 8.54778C72.9342 8.69988 73.2677 8.77493 73.6048 8.76648C74.1681 8.76648 74.6183 8.60544 74.9553 8.28384C75.2923 7.96175 75.4949 7.5303 75.564 6.9895H76.3186C76.242 7.74751 75.9692 8.34647 75.4993 8.78587C75.0299 9.22577 74.3984 9.44646 73.6048 9.44895C73.162 9.45839 72.7227 9.36793 72.319 9.18501V9.18451Z" fill="#727272"/>
<path d="M81.0654 8.5602C81.3441 8.41754 81.5852 8.21027 81.7691 7.95577C81.9637 7.68388 82.1071 7.37819 82.1916 7.05411C82.3793 6.33735 82.3793 5.58431 82.1916 4.86755C82.1066 4.54346 81.9637 4.23777 81.7691 3.96588C81.5852 3.71139 81.3441 3.50411 81.0654 3.36146C80.4472 3.06869 79.7317 3.06869 79.1135 3.36146C78.8363 3.5066 78.5956 3.71337 78.4093 3.96588C78.2117 4.23678 78.0659 4.54247 77.9804 4.86755C77.7926 5.58431 77.7926 6.33735 77.9804 7.05411C78.0659 7.37918 78.2112 7.68488 78.4093 7.95577C78.8002 8.49409 79.4307 8.80276 80.0929 8.7799C80.4294 8.78636 80.7625 8.71081 81.0639 8.5602H81.0659H81.0654ZM78.8047 9.1845C78.4326 9.01451 78.1025 8.76349 77.8376 8.45084C77.5658 8.12477 77.3588 7.7485 77.2288 7.3434C76.9472 6.44273 76.9472 5.47694 77.2288 4.57627C77.3588 4.17117 77.5653 3.79539 77.8376 3.46882C78.102 3.15518 78.4321 2.90466 78.8047 2.73516C79.2094 2.55423 79.6482 2.46476 80.0909 2.47272C80.5317 2.46427 80.9685 2.55374 81.3708 2.73516C81.7389 2.90665 82.0655 3.15717 82.3274 3.46882C82.5987 3.7944 82.8033 4.17067 82.9293 4.57627C83.2016 5.47843 83.2016 6.44173 82.9293 7.3434C82.8033 7.749 82.5987 8.12527 82.3274 8.45084C82.0655 8.7625 81.7389 9.01302 81.3708 9.1845C80.9685 9.36593 80.5317 9.4554 80.0909 9.44695C79.6482 9.4549 79.2094 9.36543 78.8047 9.1845Z" fill="#727272"/>
<path d="M85.0545 2.62538V3.63043H85.0807C85.2882 3.30138 85.563 3.02054 85.8866 2.80631C86.2113 2.59108 86.6125 2.48372 87.0904 2.48421C87.4738 2.47725 87.8519 2.58164 88.178 2.78593C88.5022 2.99966 88.7423 3.32076 88.8565 3.69405H88.8817C89.0897 3.32275 89.3931 3.01408 89.7588 2.79935C90.1398 2.58462 90.5702 2.47626 91.0065 2.48471C91.2733 2.48272 91.5377 2.52845 91.7892 2.61941C92.0259 2.7054 92.2424 2.8416 92.4232 3.01805C92.6075 3.20296 92.7518 3.42465 92.8457 3.66871C92.952 3.95203 93.0038 4.25325 92.9989 4.55645V9.27951H92.2162V4.61958C92.2162 4.12202 92.0857 3.75519 91.8258 3.51859C91.5476 3.27802 91.1883 3.15276 90.8217 3.16866C90.585 3.16668 90.3503 3.21042 90.1304 3.2974C89.9189 3.3819 89.7252 3.50617 89.5606 3.66373C89.3892 3.83075 89.2562 4.03305 89.1703 4.25673C89.0739 4.50774 89.026 4.77466 89.0294 5.04407V9.28001H88.2353V4.61958C88.2353 4.12202 88.1093 3.75519 87.8578 3.51859C87.5969 3.2805 87.2535 3.15475 86.9011 3.16866C86.662 3.16767 86.4253 3.21588 86.2054 3.31033C85.9845 3.40377 85.7829 3.53649 85.6099 3.703C85.4335 3.873 85.2922 4.07629 85.1943 4.30146C85.0911 4.53657 85.0387 4.79106 85.0407 5.04854V9.28448H84.2476V2.62538H85.0545Z" fill="#727272"/>
</g>
<defs>
<clipPath id="clip0_123_1291">
<rect width="92.9992" height="12" fill="white"/>
</clipPath>
</defs>
</svg>
