<svg width="19" height="6" viewBox="0 0 19 6" fill="none" xmlns="http://www.w3.org/2000/svg">
<path fill-rule="evenodd" clip-rule="evenodd" d="M11.6098 1.30984C11.3164 1.28616 11.0563 1.49773 11.0198 1.78984L10.9998 1.77984C10.9998 2.03892 11.3175 2.20903 11.6997 2.41365C12.2764 2.7224 12.9998 3.10973 12.9998 3.99984C12.9998 5.17984 11.9998 5.99984 10.5298 5.92984C9.9975 5.93228 9.47023 5.82682 8.9798 5.61984L9.2298 4.40984C9.68827 4.63152 10.1906 4.7477 10.6998 4.74984C11.0889 4.82313 11.4642 4.56849 11.5398 4.17984C11.5798 3.91984 11.3698 3.73984 10.8198 3.47984C10.1586 3.24678 9.68869 2.65646 9.60981 1.95984C9.60981 0.869844 10.6198 0.0898438 11.9998 0.0898438C12.4291 0.097515 12.8531 0.185709 13.2498 0.349844L12.9998 1.56984C12.5687 1.35839 12.0882 1.2685 11.6098 1.30984ZM4.9098 5.87984H3.3998L2.2598 1.34984C2.22005 1.15146 2.1008 0.978001 1.9298 0.869844C1.49834 0.639375 1.03225 0.480635 0.549805 0.399844V0.219844H2.9998C3.3221 0.227323 3.59021 0.469903 3.6298 0.789844L4.1998 4.04984L5.7098 0.219844H7.1798L4.9098 5.87984ZM8.0198 5.87984H6.5898L7.7598 0.219844H9.1898L8.0198 5.87984ZM18.0198 5.87984L16.8698 0.219844H15.6598C15.389 0.224442 15.1514 0.401603 15.0698 0.659844L12.9998 5.87984H14.4698L14.7598 5.04984H16.5698L16.7298 5.87984H18.0198ZM16.2898 3.86984L15.8698 1.73984L15.1098 3.86984H16.2898Z" fill="#224DBA"/>
</svg>
